<svg width="30" height="30" viewBox="0 0 30 30" fill="none" xmlns="http://www.w3.org/2000/svg">
<path d="M18.5346 9.69623L11.4646 16.7675C11.3452 16.8828 11.25 17.0207 11.1845 17.1732C11.119 17.3257 11.0845 17.4898 11.0831 17.6557C11.0816 17.8217 11.1132 17.9863 11.1761 18.1399C11.239 18.2935 11.3318 18.4331 11.4491 18.5505C11.5665 18.6678 11.7061 18.7607 11.8597 18.8235C12.0133 18.8864 12.1779 18.918 12.3439 18.9165C12.5099 18.9151 12.6739 18.8806 12.8264 18.8151C12.9789 18.7496 13.1168 18.6544 13.2321 18.535L20.3034 11.465C21.0067 10.7617 21.4018 9.80775 21.4018 8.81311C21.4018 7.81846 21.0067 6.86455 20.3034 6.16123C19.6001 5.45791 18.6461 5.06279 17.6515 5.06279C16.6569 5.06279 15.7029 5.45791 14.9996 6.16123L7.92838 13.2325C7.33597 13.8101 6.86416 14.4997 6.54032 15.2611C6.21648 16.0225 6.04706 16.8407 6.04187 17.6681C6.03669 18.4955 6.19585 19.3157 6.51012 20.0811C6.8244 20.8465 7.28753 21.5419 7.87265 22.127C8.45777 22.712 9.15323 23.175 9.91869 23.4892C10.6842 23.8034 11.5044 23.9624 12.3318 23.9571C13.1592 23.9518 13.9773 23.7823 14.7387 23.4583C15.5001 23.1344 16.1896 22.6625 16.7671 22.07L23.8384 15L25.6059 16.7675L18.5346 23.8387C17.7221 24.6513 16.7574 25.2958 15.6958 25.7356C14.6341 26.1753 13.4963 26.4017 12.3471 26.4017C11.198 26.4017 10.0601 26.1753 8.99847 25.7356C7.93682 25.2958 6.97218 24.6513 6.15963 23.8387C5.34707 23.0262 4.70252 22.0615 4.26277 20.9999C3.82302 19.9382 3.59668 18.8004 3.59668 17.6512C3.59668 16.5021 3.82302 15.3642 4.26277 14.3026C4.70252 13.2409 5.34707 12.2763 6.15963 11.4637L13.2321 4.39373C14.4109 3.25524 15.9897 2.62528 17.6284 2.63952C19.2671 2.65376 20.8347 3.31106 21.9935 4.46987C23.1523 5.62867 23.8096 7.19624 23.8238 8.83497C23.8381 10.4737 23.2081 12.0525 22.0696 13.2312L14.9996 20.305C14.6513 20.6532 14.2378 20.9295 13.7827 21.1179C13.3276 21.3063 12.8399 21.4033 12.3473 21.4032C11.8548 21.4032 11.367 21.3061 10.912 21.1176C10.4569 20.929 10.0435 20.6527 9.69525 20.3044C9.347 19.956 9.07077 19.5425 8.88233 19.0874C8.69389 18.6323 8.59693 18.1446 8.59699 17.652C8.59705 17.1595 8.69412 16.6718 8.88267 16.2167C9.07122 15.7617 9.34755 15.3482 9.69588 15L16.7671 7.92873L18.5346 9.69623Z" fill="black"/>
</svg>
